<svg version="1.0" xmlns="http://www.w3.org/2000/svg" width="266.667" height="266.667" viewBox="0 0 200 200"><path d="M87 .7C63.8 4.4 45.4 13.5 29.9 28.9 14.8 43.9 7.2 58.1 1.3 82.2c-1.2 5-1.1 27.6.2 34.8 6.9 39.3 37.1 71.3 76 80.5 8.5 2 26.7 2.7 35.5 1.4 14-2.2 30.7-9 44.2-18.1 6.9-4.6 19.8-15.6 19.8-16.9 0-.5-14.1-15-31.4-32.3l-31.4-31.3 31.4-31.4C162.9 51.6 177 37 177 36.3c0-1.6-14.3-14.6-20.8-19-8.8-5.8-22.7-12.2-30.2-13.8-.8-.2-3.7-.9-6.5-1.5C114.6.8 91.9-.1 87 .7zm33.8 22.2c8.7 2.5 18.4 7 24.1 11.1l4.1 3-31.6 31.6-31.5 31.5 30.8 31c16.9 17 30.9 31.3 31.1 31.8.5 1.4-12.8 9-20.6 11.8-25.4 9.3-53.9 5.1-75.2-11.1-19.5-14.8-30.7-36.3-31.5-60.8-1.3-38.3 24.1-72 60.5-80.3 4.1-.9 8-1.8 8.5-2 3.4-1.1 24.8.6 31.3 2.4z"/><path d="M175.1 79.7c-4.3.8-9.8 5.3-12.4 10.1-7.1 13 2.5 29.2 17.2 29.2 17.7-.1 26.5-21.3 14-33.8-5.1-5.2-11.1-6.9-18.8-5.5z"/></svg>